<?xml version="1.0" standalone="no"?>
<!DOCTYPE svg PUBLIC "-//W3C//DTD SVG 20010904//EN"
 "http://www.w3.org/TR/2001/REC-SVG-20010904/DTD/svg10.dtd">
<svg version="1.0" xmlns="http://www.w3.org/2000/svg"
 width="980.000000pt" height="980.000000pt" viewBox="0 0 980.000000 980.000000"
 preserveAspectRatio="xMidYMid meet">
<metadata>
Created by potrace 1.14, written by Peter Selinger 2001-2017
</metadata>
<g transform="translate(0.000000,980.000000) scale(0.100000,-0.100000)"
fill="#000000" stroke="none">
<path d="M1505 8308 l0 -1463 560 0 560 0 1 1325 c1 729 2 1330 3 1335 1 7
140 10 409 9 224 -1 409 -2 412 -3 3 0 5 -947 5 -2104 l0 -2102 -628 -3 -628
-2 3 -128 3 -127 623 0 c342 0 623 -2 623 -5 4 -14 4 -2228 1 -2242 -6 -26
-292 -155 -385 -173 -10 -3 -27 -7 -37 -10 -20 -6 -51 -13 -90 -21 -14 -2 -34
-6 -45 -9 -11 -2 -45 -7 -75 -11 -30 -3 -71 -8 -90 -11 -19 -3 -476 -7 -1015
-8 -1089 -4 -1053 -6 -1195 62 -198 95 -296 298 -250 519 33 158 146 278 322
342 l73 27 1155 3 1155 2 0 556 0 555 -870 -4 c-478 -1 -882 -6 -897 -10 -16
-4 -38 -9 -50 -11 -161 -29 -349 -110 -507 -220 -71 -48 -208 -176 -279 -258
-55 -64 -152 -219 -197 -313 -42 -86 -119 -295 -110 -295 3 0 0 -11 -5 -25
-10 -25 -15 -49 -26 -114 -3 -18 -7 -43 -10 -55 -24 -123 -23 -456 1 -576 3
-14 7 -36 10 -50 5 -24 10 -50 20 -100 9 -47 57 -195 66 -204 5 -6 9 -16 9
-24 0 -24 97 -210 155 -296 64 -97 162 -208 242 -278 32 -28 60 -54 63 -58 3
-3 45 -32 94 -64 177 -116 373 -190 561 -212 78 -10 1615 -10 1720 -1 44 4 95
9 113 12 97 13 120 17 157 27 22 5 49 12 60 14 11 2 50 12 88 23 37 11 68 19
68 18 1 -1 2 -285 3 -630 1 -409 -2 -631 -9 -636 -5 -4 -83 -7 -172 -6 -137 0
-162 -2 -165 -15 -2 -8 -4 -64 -3 -125 l0 -110 1803 -3 1802 -2 0 128 0 127
-162 0 c-90 -1 -167 0 -173 2 -7 2 -10 519 -10 1524 l0 1521 45 20 c25 11 59
26 75 33 42 19 185 66 214 72 14 2 28 6 31 8 4 2 20 7 36 9 16 3 40 8 54 11
14 3 45 8 70 11 25 3 59 9 75 12 17 3 503 7 1080 9 1040 3 1051 3 1125 -18
153 -42 265 -126 326 -244 36 -69 47 -113 49 -208 3 -122 -37 -228 -119 -316
-95 -100 -204 -149 -376 -166 -14 -2 -519 -3 -1122 -4 l-1098 -1 0 -553 0
-552 848 1 c466 0 867 4 892 8 401 64 722 273 960 625 88 131 202 399 225 531
3 18 7 36 9 39 2 3 7 29 11 56 4 28 9 61 12 75 3 14 6 115 8 225 3 204 -7 310
-41 445 -9 36 -18 74 -20 85 -19 94 -119 316 -196 436 -228 353 -559 573 -958
637 -60 9 -1777 9 -1860 0 -36 -5 -103 -15 -150 -24 -47 -8 -98 -18 -115 -21
-16 -3 -37 -8 -45 -12 -45 -22 -45 -20 -45 241 0 137 2 249 5 249 3 1 282 3
620 4 338 1 617 3 620 4 3 0 6 56 5 124 l0 122 -625 5 -625 5 0 2100 c0 1155
3 2102 6 2105 6 4 801 5 819 1 3 0 5 -602 5 -1336 l0 -1335 557 0 558 0 0
1465 0 1465 -3403 0 -3402 0 0 -1462z m3730 1200 c7 -4 10 -946 10 -2794 l0
-2787 -245 -159 c-135 -87 -252 -161 -260 -165 -8 -4 -47 -28 -87 -55 -40 -26
-74 -48 -75 -48 -7 0 -3 6005 3 6010 11 8 642 6 654 -2z m10 -8065 l0 -1168
-333 0 c-182 0 -333 2 -333 5 -4 17 -3 1903 1 1910 3 4 140 94 305 200 165
105 309 198 320 205 11 8 25 14 30 14 7 1 10 -392 10 -1166z"/>
</g>
</svg>
