<?xml version="1.0" encoding="UTF-8"?>
<svg xmlns="http://www.w3.org/2000/svg" xmlns:xlink="http://www.w3.org/1999/xlink" width="375pt" height="374.999991pt" viewBox="0 0 375 374.999991" version="1.2">
<defs>
<clipPath id="clip1">
  <path d="M 75 63.179688 L 299.992188 63.179688 L 299.992188 312.179688 L 75 312.179688 Z M 75 63.179688 "/>
</clipPath>
<clipPath id="clip2">
  <path d="M 115.140625 122.277344 L 260.058594 122.277344 L 260.058594 252.753906 L 115.140625 252.753906 Z M 115.140625 122.277344 "/>
</clipPath>
</defs>
<g id="surface1">
<g clip-path="url(#clip1)" clip-rule="nonzero">
<path style=" stroke:none;fill-rule:nonzero;fill:rgb(77.648926%,61.178589%,42.749023%);fill-opacity:1;" d="M 187.515625 312.179688 L 186.519531 311.882812 C 155.492188 302.171875 130.480469 284.890625 112.03125 260.539062 C 97.363281 241.117188 86.871094 217.160156 80.90625 189.421875 C 70.761719 142.363281 76.976562 101.175781 77.277344 99.433594 L 77.574219 97.390625 L 187.464844 63.179688 L 297.355469 97.390625 L 297.65625 99.433594 C 297.902344 101.175781 304.121094 142.363281 294.027344 189.421875 C 288.058594 217.160156 277.566406 241.117188 262.898438 260.539062 C 244.5 284.890625 219.4375 302.171875 188.410156 311.882812 Z M 83.492188 102.421875 C 82.347656 111.285156 78.667969 148.039062 87.371094 188.226562 C 93.136719 215.019531 103.230469 238.027344 117.355469 256.652344 C 134.707031 279.609375 158.328125 295.996094 187.515625 305.308594 C 216.753906 295.945312 240.371094 279.5625 257.726562 256.554688 C 271.847656 237.878906 281.894531 214.820312 287.660156 188.027344 C 296.3125 147.890625 292.632812 111.238281 291.488281 102.421875 L 187.464844 70.050781 Z M 83.492188 102.421875 "/>
</g>
<g clip-path="url(#clip2)" clip-rule="nonzero">
<path style=" stroke:none;fill-rule:nonzero;fill:rgb(77.648926%,61.178589%,42.749023%);fill-opacity:1;" d="M 207.609375 191.867188 C 215.777344 173.964844 223.855469 156.257812 232.074219 138.230469 C 240.3125 156.292969 248.394531 174.011719 256.539062 191.867188 Z M 167.589844 191.867188 L 118.664062 191.867188 C 126.804688 174.011719 134.886719 156.292969 143.125 138.230469 C 151.351562 156.257812 159.429688 173.964844 167.589844 191.867188 Z M 233.726562 134.378906 C 234.921875 134.328125 235.878906 134.28125 236.820312 134.238281 L 236.820312 127.382812 L 193.695312 127.382812 L 193.695312 122.277344 L 181.511719 122.277344 L 181.511719 127.382812 L 138.386719 127.382812 L 138.386719 134.238281 C 139.324219 134.28125 140.28125 134.328125 141.472656 134.378906 C 141.296875 134.921875 115.378906 191.601562 115.140625 191.949219 C 115.140625 192.832031 115.355469 195.042969 115.386719 195.277344 C 116.015625 199.945312 118.023438 203.964844 121.214844 207.382812 C 130.097656 216.914062 145.4375 219.363281 157.394531 213.105469 C 163.894531 209.703125 168.535156 204.664062 170.351562 197.394531 C 170.886719 195.238281 171.398438 193.054688 170.367188 190.796875 C 162.015625 172.566406 145.011719 135.019531 144.792969 134.417969 L 181.332031 134.417969 L 181.332031 235.027344 C 170.226562 237.511719 160.445312 241.671875 154.960938 252.753906 L 220.238281 252.753906 C 214.757812 241.671875 204.972656 237.511719 193.867188 235.027344 L 193.867188 134.417969 L 230.40625 134.417969 C 230.1875 135.019531 213.1875 172.566406 204.839844 190.796875 C 203.800781 193.054688 204.3125 195.238281 204.851562 197.394531 C 206.664062 204.664062 211.308594 209.703125 217.808594 213.105469 C 229.769531 219.363281 245.101562 216.914062 253.984375 207.382812 C 257.175781 203.964844 259.183594 199.945312 259.8125 195.277344 C 259.84375 195.042969 260.058594 192.832031 260.058594 191.949219 C 259.824219 191.601562 233.910156 134.921875 233.726562 134.378906 "/>
</g>
</g>
</svg>
