<?xml version="1.0" encoding="UTF-8"?><svg xmlns="http://www.w3.org/2000/svg" xmlns:xlink="http://www.w3.org/1999/xlink" width="375" zoomAndPan="magnify" viewBox="0 0 375 374.999991" height="374.999991" preserveAspectRatio="xMidYMid meet" version="1.0"><defs><clipPath id="clip-0"><path d="M 49.652344 63.246094 L 325.292969 63.246094 L 325.292969 311.453125 L 49.652344 311.453125 Z M 49.652344 63.246094 " clip-rule="nonzero"/></clipPath></defs><path fill="rgb(0.389099%, 45.878601%, 55.688477%)" d="M 296.773438 375 L 375 375 L 375 78.226562 L 296.773438 0 L 0 0 L 0 375 Z M 296.773438 375 " fill-opacity="1" fill-rule="nonzero"/><g clip-path="url(#clip-0)"><path fill="rgb(100%, 100%, 100%)" d="M 225.535156 195.628906 C 241.066406 161.574219 256.433594 127.886719 272.070312 93.59375 C 287.738281 127.953125 303.113281 161.660156 318.605469 195.628906 Z M 149.414062 195.628906 L 56.347656 195.628906 C 71.832031 161.660156 87.207031 127.953125 102.878906 93.59375 C 118.523438 127.886719 133.886719 161.574219 149.414062 195.628906 Z M 275.210938 86.269531 C 277.484375 86.167969 279.300781 86.085938 281.09375 86 L 281.09375 72.960938 L 199.066406 72.960938 L 199.066406 63.246094 L 175.890625 63.246094 L 175.890625 72.960938 L 93.863281 72.960938 L 93.863281 86 C 95.644531 86.085938 97.46875 86.167969 99.734375 86.269531 C 99.398438 87.296875 50.101562 195.121094 49.652344 195.785156 C 49.652344 197.464844 50.058594 201.671875 50.117188 202.113281 C 51.316406 210.996094 55.136719 218.640625 61.203125 225.148438 C 78.097656 243.277344 107.273438 247.933594 130.015625 236.03125 C 142.382812 229.558594 151.214844 219.972656 154.667969 206.140625 C 155.6875 202.042969 156.652344 197.886719 154.691406 193.59375 C 138.8125 158.910156 106.46875 87.484375 106.050781 86.339844 L 175.550781 86.339844 L 175.550781 277.730469 C 154.429688 282.457031 135.824219 290.371094 125.390625 311.453125 L 249.558594 311.453125 C 239.132812 290.371094 220.515625 282.457031 199.394531 277.730469 L 199.394531 86.339844 L 268.894531 86.339844 C 268.480469 87.484375 236.144531 158.910156 220.261719 193.59375 C 218.292969 197.886719 219.261719 202.042969 220.285156 206.140625 C 223.734375 219.972656 232.570312 229.558594 244.929688 236.03125 C 267.679688 247.933594 296.847656 243.277344 313.742188 225.148438 C 319.8125 218.640625 323.632812 210.996094 324.828125 202.113281 C 324.886719 201.671875 325.292969 197.464844 325.292969 195.785156 C 324.851562 195.121094 275.558594 87.296875 275.210938 86.269531 " fill-opacity="1" fill-rule="nonzero"/></g></svg>